# xmcd CD database file
#
# Track frame offsets:
#	150
#	35446
#	64045
#	97345
#	128263
#	165038
#	198114
#	227290
#	263999
#
# Disc length: 3963 seconds
#
# Revision: 1
# Processed by: cddbd v1.5.2PL0 Copyright (c) Steve Scherf et al.
# Submitted via: CDex 1.50beta9
#
DISCID=640f7909
DTITLE=Various Artist - Goa-Head Volume 24 [CD 2)
DYEAR=2007
DGENRE=New Age
TTITLE0=Genetic Spin - Chemical Principles
TTITLE1=Elec3 - Acidtest
TTITLE2=BLT Vs. 40% - SPO
TTITLE3=Mahamudra - 4th Dimension
TTITLE4=PsyNina - The Legend Sophia Scholl
TTITLE5=Smugh - Virus
TTITLE6=Lucky Seven - New Crypton #7
TTITLE7=Miditec - Botanical Seduction
TTITLE8=Galactika Vs. PsyNina - Cocaine Serotonine
EXTD=YEAR: 2007
EXTT0=
EXTT1=
EXTT2=
EXTT3=
EXTT4=
EXTT5=
EXTT6=
EXTT7=
EXTT8=
PLAYORDER=
